<mxfile host="app.diagrams.net" agent="Mozilla/5.0 (Windows NT 10.0; Win64; x64) AppleWebKit/537.36 (KHTML, like Gecko) Chrome/134.0.0.0 Safari/537.36 Edg/134.0.0.0" version="26.1.1">
  <diagram name="第 1 页" id="hzEXCzPKg-zQ6wTnfJeB">
    <mxGraphModel dx="1410" dy="774" grid="1" gridSize="10" guides="1" tooltips="1" connect="1" arrows="1" fold="1" page="1" pageScale="1" pageWidth="827" pageHeight="1169" math="0" shadow="0">
      <root>
        <mxCell id="0" />
        <mxCell id="1" parent="0" />
        <mxCell id="USbmipxAbGML783p1rLU-3" style="edgeStyle=orthogonalEdgeStyle;rounded=0;orthogonalLoop=1;jettySize=auto;html=1;exitX=0.5;exitY=0;exitDx=0;exitDy=0;entryX=0;entryY=0.5;entryDx=0;entryDy=0;curved=1;" edge="1" parent="1" source="USbmipxAbGML783p1rLU-1" target="USbmipxAbGML783p1rLU-2">
          <mxGeometry relative="1" as="geometry" />
        </mxCell>
        <mxCell id="USbmipxAbGML783p1rLU-1" value="start" style="ellipse;whiteSpace=wrap;html=1;aspect=fixed;" vertex="1" parent="1">
          <mxGeometry x="80" y="360" width="50" height="50" as="geometry" />
        </mxCell>
        <mxCell id="USbmipxAbGML783p1rLU-5" style="edgeStyle=orthogonalEdgeStyle;rounded=0;orthogonalLoop=1;jettySize=auto;html=1;exitX=1;exitY=0.5;exitDx=0;exitDy=0;entryX=0;entryY=0.5;entryDx=0;entryDy=0;curved=1;" edge="1" parent="1" source="USbmipxAbGML783p1rLU-2" target="USbmipxAbGML783p1rLU-4">
          <mxGeometry relative="1" as="geometry" />
        </mxCell>
        <mxCell id="USbmipxAbGML783p1rLU-6" value="button pressed" style="edgeLabel;html=1;align=center;verticalAlign=middle;resizable=0;points=[];" vertex="1" connectable="0" parent="USbmipxAbGML783p1rLU-5">
          <mxGeometry x="-0.2432" y="-1" relative="1" as="geometry">
            <mxPoint as="offset" />
          </mxGeometry>
        </mxCell>
        <mxCell id="USbmipxAbGML783p1rLU-2" value="idle" style="ellipse;whiteSpace=wrap;html=1;aspect=fixed;" vertex="1" parent="1">
          <mxGeometry x="180" y="280" width="80" height="80" as="geometry" />
        </mxCell>
        <mxCell id="USbmipxAbGML783p1rLU-8" style="edgeStyle=orthogonalEdgeStyle;rounded=0;orthogonalLoop=1;jettySize=auto;html=1;exitX=1;exitY=0.5;exitDx=0;exitDy=0;entryX=0.5;entryY=0;entryDx=0;entryDy=0;curved=1;" edge="1" parent="1" source="USbmipxAbGML783p1rLU-4" target="USbmipxAbGML783p1rLU-7">
          <mxGeometry relative="1" as="geometry" />
        </mxCell>
        <mxCell id="USbmipxAbGML783p1rLU-9" value="button released" style="edgeLabel;html=1;align=center;verticalAlign=middle;resizable=0;points=[];" vertex="1" connectable="0" parent="USbmipxAbGML783p1rLU-8">
          <mxGeometry x="-0.26" y="-8" relative="1" as="geometry">
            <mxPoint as="offset" />
          </mxGeometry>
        </mxCell>
        <mxCell id="USbmipxAbGML783p1rLU-4" value="data collect" style="ellipse;whiteSpace=wrap;html=1;aspect=fixed;" vertex="1" parent="1">
          <mxGeometry x="380" y="280" width="80" height="80" as="geometry" />
        </mxCell>
        <mxCell id="USbmipxAbGML783p1rLU-10" style="edgeStyle=orthogonalEdgeStyle;rounded=0;orthogonalLoop=1;jettySize=auto;html=1;exitX=0;exitY=0.5;exitDx=0;exitDy=0;entryX=1;entryY=0.5;entryDx=0;entryDy=0;curved=1;" edge="1" parent="1" source="USbmipxAbGML783p1rLU-7" target="USbmipxAbGML783p1rLU-1">
          <mxGeometry relative="1" as="geometry" />
        </mxCell>
        <mxCell id="USbmipxAbGML783p1rLU-7" value="data collect finished(send message to haptic feedback &amp;amp;&amp;nbsp; CNN task)" style="ellipse;whiteSpace=wrap;html=1;aspect=fixed;" vertex="1" parent="1">
          <mxGeometry x="500" y="370" width="110" height="110" as="geometry" />
        </mxCell>
      </root>
    </mxGraphModel>
  </diagram>
</mxfile>
